# Blender v2.66 (sub 0) OBJ File: ''
# www.blender.org
mtllib cubeNormalFlat.mtl
o Cube
v 1.000000 -1.000000 -1.000000
v 1.000000 -1.000000 1.000000
v -1.000000 -1.000000 1.000000
v -1.000000 -1.000000 -1.000000
v 1.000000 1.000000 -0.999999
v 0.999999 1.000000 1.000001
v -1.000000 1.000000 1.000000
v -1.000000 1.000000 -1.000000
v 1.000000 -1.000000 -1.000000
v 1.000000 -1.000000 -1.000000
v 1.000000 -1.000000 1.000000
v 1.000000 -1.000000 1.000000
v -1.000000 -1.000000 -1.000000
v -1.000000 -1.000000 -1.000000
v 1.000000 1.000000 -0.999999
v 1.000000 1.000000 -0.999999
v -1.000000 -1.000000 1.000000
v -1.000000 -1.000000 1.000000
v 0.999999 1.000000 1.000001
v 0.999999 1.000000 1.000001
v -1.000000 1.000000 1.000000
v -1.000000 1.000000 1.000000
v -1.000000 1.000000 -1.000000
v -1.000000 1.000000 -1.000000
vn 0.000000 -0.999969 0.000000
vn 0.000000 -1.000000 0.000000
vn 0.000000 1.000000 0.000000
vn 1.000000 0.000000 0.000000
vn 0.000000 0.000000 1.000000
vn 0.000000 0.000000 0.999969
vn -1.000000 0.000000 0.000000
vn -0.999969 0.000000 0.000000
vn 0.000000 0.000000 -1.000000
vn 0.000000 0.000000 -0.999969
usemtl Material
s 1
f 1//1 2//2 3//2 4//2
f 15//3 23//3 21//3 19//3
f 9//4 5//4 6//4 11//4
f 12//5 20//5 7//5 17//6
f 18//7 22//7 8//8 13//7
f 16//9 10//9 14//10 24//9
