# Blender v2.66 (sub 0) OBJ File: 'untitled.blend'
# www.blender.org
mtllib untitled.mtl
o Cube
v -1.000000 0.000000 2.111075
v 0.999999 0.000000 2.111076
v 1.000000 0.000000 -2.055538
v 0.999999 0.000000 -0.055538
v -1.000000 0.000000 -0.055539
v -1.000000 0.000000 -2.055538
v 0.999999 -2.324045 2.111076
v 1.000000 -2.324045 -2.055538
v 0.999999 -2.324045 -0.055538
v 1.000000 0.000000 -5.273564
v 0.999999 0.000000 -3.273564
v -1.000000 0.000000 -3.273565
v -1.000000 0.000000 -5.273565
v 0.999999 0.000000 2.111076
v 0.999999 0.000000 -0.055538
v 1.000000 0.000000 -2.055538
vt 0.963501 0.537463
vt 0.963501 0.999902
vt 0.501062 0.999902
vt 0.501062 0.537463
vt 0.488014 0.512086
vt 0.488014 0.661281
vt 0.326390 0.661281
vt 0.326390 0.512086
vt 0.000098 0.537463
vt 0.000098 0.000099
vt 0.501062 0.000098
vt 0.637209 0.512086
vt 0.488014 0.338719
vt 0.637209 0.338719
vn 0.000000 1.000000 0.000000
vn 0.000000 0.999969 0.000000
vn 1.000000 0.000000 0.000000
usemtl brick
s 1
f 3/1/1 6/2/1 5/3/1 4/4/1
f 4/5/1 5/6/1 1/7/1 2/8/2
f 15/4/3 14/9/3 7/10/3 9/11/3
f 16/12/3 15/5/3 9/13/3 8/14/3
f 10/1/1 13/2/1 12/3/1 11/4/1
