# Blender v2.66 (sub 0) OBJ File: 'floor.blend'
# www.blender.org
mtllib floor.mtl
o Cube.002_Cube.003
v 20.948027 0.330719 -43.628864
v 21.732002 0.330719 -43.628864
v 21.732002 0.330719 33.941334
v 20.948027 0.330719 33.941334
v 20.948027 7.582620 -43.628864
v 21.732002 7.582620 -43.628864
v 21.732002 7.582620 33.941334
v 20.948027 7.582620 33.941334
v -21.732002 0.330719 -43.628864
v -20.948027 0.330719 -43.628864
v -20.948027 0.330719 33.941334
v -21.732002 0.330719 33.941334
v -21.732002 7.582620 -43.628864
v -20.948027 7.582620 -43.628864
v -20.948027 7.582620 33.941334
v -21.732002 7.582620 33.941334
v -21.732002 0.330719 34.725307
v -21.732002 0.330719 33.941330
v 21.732002 0.330719 33.941330
v 21.732002 0.330719 34.725307
v -21.732002 7.582620 34.725307
v -21.732002 7.582620 33.941330
v 21.732002 7.582620 33.941330
v 21.732002 7.582620 34.725307
v -21.732002 0.330719 -43.628860
v -21.732002 0.330719 -44.412834
v 21.732000 0.330719 -44.412834
v 21.732000 0.330719 -43.628860
v -21.732002 7.582620 -43.628860
v -21.732002 7.582620 -44.412834
v 21.732000 7.582620 -44.412834
v 21.732000 7.582620 -43.628860
v -21.732002 -0.122679 34.725311
v -21.732002 -0.122679 -44.412834
v 21.732002 -0.122679 -44.412834
v 21.732002 -0.122679 34.725311
v -21.732002 0.330719 34.725311
v -21.732002 0.330719 -44.412834
v 21.732002 0.330719 -44.412834
v 21.732002 0.330719 34.725311
v 20.948027 7.582620 -43.628864
v 20.948027 7.582620 -43.628864
v 21.732002 7.582620 -43.628864
v 21.732002 7.582620 -43.628864
v 21.732002 0.330719 -43.628864
v 21.732002 0.330719 -43.628864
v 20.948027 0.330719 -43.628864
v 20.948027 0.330719 -43.628864
v 21.732002 7.582620 33.941334
v 21.732002 7.582620 33.941334
v 21.732002 0.330719 33.941334
v 21.732002 0.330719 33.941334
v 20.948027 7.582620 33.941334
v 20.948027 7.582620 33.941334
v 20.948027 0.330719 33.941334
v 20.948027 0.330719 33.941334
v -21.732002 7.582620 -43.628864
v -21.732002 7.582620 -43.628864
v -20.948027 7.582620 -43.628864
v -20.948027 7.582620 -43.628864
v -20.948027 0.330719 -43.628864
v -20.948027 0.330719 -43.628864
v -21.732002 0.330719 -43.628864
v -21.732002 0.330719 -43.628864
v -20.948027 7.582620 33.941334
v -20.948027 7.582620 33.941334
v -20.948027 0.330719 33.941334
v -20.948027 0.330719 33.941334
v -21.732002 7.582620 33.941334
v -21.732002 7.582620 33.941334
v -21.732002 0.330719 33.941334
v -21.732002 0.330719 33.941334
v -21.732002 7.582620 34.725307
v -21.732002 7.582620 34.725307
v -21.732002 7.582620 33.941330
v -21.732002 7.582620 33.941330
v -21.732002 0.330719 33.941330
v -21.732002 0.330719 33.941330
v -21.732002 0.330719 34.725307
v -21.732002 0.330719 34.725307
v 21.732002 7.582620 33.941330
v 21.732002 7.582620 33.941330
v 21.732002 0.330719 33.941330
v 21.732002 0.330719 33.941330
v 21.732002 7.582620 34.725307
v 21.732002 7.582620 34.725307
v 21.732002 0.330719 34.725307
v 21.732002 0.330719 34.725307
v -21.732002 7.582620 -43.628860
v -21.732002 7.582620 -43.628860
v -21.732002 7.582620 -44.412834
v -21.732002 7.582620 -44.412834
v -21.732002 0.330719 -44.412834
v -21.732002 0.330719 -44.412834
v -21.732002 0.330719 -43.628860
v -21.732002 0.330719 -43.628860
v 21.732000 7.582620 -44.412834
v 21.732000 7.582620 -44.412834
v 21.732000 0.330719 -44.412834
v 21.732000 0.330719 -44.412834
v 21.732000 7.582620 -43.628860
v 21.732000 7.582620 -43.628860
v 21.732000 0.330719 -43.628860
v 21.732000 0.330719 -43.628860
v -21.732002 0.330719 34.725311
v -21.732002 0.330719 34.725311
v -21.732002 0.330719 -44.412834
v -21.732002 0.330719 -44.412834
v -21.732002 -0.122679 -44.412834
v -21.732002 -0.122679 -44.412834
v -21.732002 -0.122679 34.725311
v -21.732002 -0.122679 34.725311
v 21.732002 0.330719 -44.412834
v 21.732002 0.330719 -44.412834
v 21.732002 -0.122679 -44.412834
v 21.732002 -0.122679 -44.412834
v 21.732002 0.330719 34.725311
v 21.732002 0.330719 34.725311
v 21.732002 -0.122679 34.725311
v 21.732002 -0.122679 34.725311
vt 2.229194 -0.716000
vt 2.168709 -0.717423
vt 2.168869 -1.178378
vt 2.229353 -1.176955
vt 1.228169 2.939695
vt -3.359097 2.939685
vt -3.378508 2.338315
vt 1.208757 2.338326
vt 2.229194 -2.829701
vt 2.168709 -2.831103
vt 2.168709 -3.292058
vt 2.229194 -3.290656
vt -3.378508 3.551672
vt 1.208758 3.551669
vt 1.228171 4.153039
vt -3.359095 4.153043
vt 3.714738 2.137128
vt 3.691147 2.333015
vt 2.168709 2.333015
vt 2.192299 2.137128
vt 2.168709 -0.313626
vt 2.192299 -0.509513
vt 3.714738 -0.509513
vt 3.691146 -0.313626
vt 2.229192 1.351627
vt 2.168709 1.350204
vt 2.168868 0.889249
vt 2.229352 0.890672
vt 1.228171 3.546365
vt -3.359095 3.546370
vt -3.378508 2.944999
vt 1.208757 2.944995
vt 2.229194 -1.183677
vt 2.168709 -1.185079
vt 2.168709 -1.646034
vt 2.229194 -1.644632
vt -3.378508 4.158346
vt 1.208758 4.158342
vt 1.228171 4.759711
vt -3.359095 4.759715
vt 3.714738 -0.710700
vt 3.691147 -0.514813
vt 2.168709 -0.514813
vt 2.192299 -0.710700
vt 2.168709 2.131828
vt 2.192299 1.935941
vt 3.714738 1.935941
vt 3.691146 2.131828
vt 2.229192 0.732662
vt 2.168709 0.731239
vt 2.168868 0.270284
vt 2.229352 0.271707
vt 1.233471 3.458135
vt 4.277187 3.458135
vt 4.277187 3.965974
vt 1.233471 3.965974
vt 2.229194 -3.297358
vt 2.168709 -3.298760
vt 2.168709 -3.759715
vt 2.229194 -3.758313
vt 4.277185 2.939695
vt 1.233468 2.939695
vt 1.233468 2.431856
vt 4.277185 2.431857
vt 2.168709 -0.004703
vt 2.185222 -0.151475
vt 3.323735 -0.151475
vt 3.307222 -0.004703
vt 3.323735 1.626613
vt 3.307222 1.773385
vt 2.168709 1.773385
vt 2.185223 1.626613
vt 2.229194 -1.651334
vt 2.168709 -1.652736
vt 2.168709 -2.113690
vt 2.229194 -2.112288
vt 1.233471 3.971275
vt 4.277187 3.971274
vt 4.277187 4.479113
vt 1.233471 4.479113
vt 2.229194 -2.362045
vt 2.168709 -2.363447
vt 2.168709 -2.824401
vt 2.229194 -2.822999
vt 4.277187 3.452834
vt 1.233471 3.452835
vt 1.233471 2.944995
vt 4.277187 2.944997
vt 2.168709 1.621313
vt 2.185222 1.474542
vt 3.323733 1.474542
vt 3.307220 1.621313
vt 3.323733 0.000597
vt 3.307220 0.147369
vt 2.168709 0.147369
vt 2.185223 0.000597
vt 2.168709 -0.308326
vt 3.329767 -0.308325
vt 3.339682 -0.156775
vt 2.178623 -0.156775
vt 2.168709 1.356926
vt 3.029144 1.356927
vt 3.036458 1.469242
vt 2.176024 1.469242
vt 3.339630 1.930641
vt 2.178570 1.930240
vt 2.168709 1.778685
vt 3.329767 1.779086
vt 3.036458 0.264984
vt 2.176024 0.264984
vt 2.168709 0.152669
vt 3.029144 0.152669
vt -3.378508 -0.710700
vt 2.163409 -0.710700
vt 2.163409 2.333015
vt -3.378508 2.333015
vt -3.378508 -3.759715
vt 2.163410 -3.759715
vt 2.163410 -0.716000
vt -3.378508 -0.716000
vn 0.000000 0.000000 -1.000000
vn 1.000000 -0.000000 0.000000
vn 0.000000 -0.000000 1.000000
vn -1.000000 0.000000 0.000000
vn 0.000000 -1.000000 -0.000000
vn 0.000000 1.000000 -0.000000
usemtl None
s off
f 5/1/1 6/2/1 2/3/1 1/4/1
f 43/5/2 7/6/2 3/7/2 45/8/2
f 49/9/3 8/10/3 4/11/3 51/12/3
f 53/13/4 41/14/4 47/15/4 55/16/4
f 48/17/5 46/18/5 52/19/5 56/20/5
f 54/21/6 50/22/6 44/23/6 42/24/6
f 13/25/1 14/26/1 10/27/1 9/28/1
f 59/29/2 15/30/2 11/31/2 61/32/2
f 65/33/3 16/34/3 12/35/3 67/36/3
f 69/37/4 57/38/4 63/39/4 71/40/4
f 64/41/5 62/42/5 68/43/5 72/44/5
f 70/45/6 66/46/6 60/47/6 58/48/6
f 21/49/4 22/50/4 18/51/4 17/52/4
f 75/53/1 23/54/1 19/55/1 77/56/1
f 81/57/2 24/58/2 20/59/2 83/60/2
f 85/61/3 73/62/3 79/63/3 87/64/3
f 80/65/5 78/66/5 84/67/5 88/68/5
f 86/69/6 82/70/6 76/71/6 74/72/6
f 29/73/4 30/74/4 26/75/4 25/76/4
f 91/77/1 31/78/1 27/79/1 93/80/1
f 97/81/2 32/82/2 28/83/2 99/84/2
f 101/85/3 89/86/3 95/87/3 103/88/3
f 96/89/5 94/90/5 100/91/5 104/92/5
f 102/93/6 98/94/6 92/95/6 90/96/6
f 37/97/4 38/98/4 34/99/4 33/100/4
f 107/101/1 39/102/1 35/103/1 109/104/1
f 113/105/2 40/106/2 36/107/2 115/108/2
f 117/109/3 105/110/3 111/111/3 119/112/3
f 112/113/5 110/114/5 116/115/5 120/116/5
f 118/117/6 114/118/6 108/119/6 106/120/6
