# Blender v2.66 (sub 0) OBJ File: 'kassa.blend'
# www.blender.org
mtllib kassa.mtl
o Cube
v 1.000000 0.000000 -1.000000
v 1.000000 0.000000 1.000000
v -3.611444 0.000000 1.000000
v -3.611444 0.000000 -1.000000
v 1.000000 1.117349 -0.999999
v 0.999999 1.117349 1.000001
v -3.611445 1.117349 1.000000
v -3.611444 1.117349 -1.000000
v 1.039570 0.017824 -2.967730
v 1.039570 0.017824 -0.967729
v -1.420921 0.017824 -0.967730
v -1.420921 0.017824 -2.967730
v 1.039570 1.577054 -2.967729
v 1.039569 1.577054 -0.967729
v -1.420921 1.577054 -0.967730
v -1.420921 1.577054 -2.967730
vt 0.235594 0.778718
vt 0.000300 0.778718
vt 0.000300 0.236194
vt 0.235594 0.236194
vt 0.542824 0.235594
vt 0.000300 0.235594
vt 0.000300 0.000300
vt 0.542824 0.000300
vt 0.997453 0.736194
vt 0.997453 0.867647
vt 0.762158 0.867647
vt 0.762158 0.736194
vt 0.778718 0.368247
vt 0.778718 0.499700
vt 0.236194 0.499700
vt 0.236194 0.368247
vt 0.762158 0.999700
vt 0.762158 0.868247
vt 0.997453 0.868247
vt 0.997453 0.999700
vt 0.778718 0.236194
vt 0.778718 0.367647
vt 0.236194 0.367647
vt 0.236194 0.236194
vt 0.815734 0.500300
vt 0.815734 0.735594
vt 0.526264 0.735595
vt 0.526264 0.500300
vt 0.525664 0.735594
vt 0.236194 0.735595
vt 0.236194 0.500300
vt 0.525664 0.500300
vt 0.761558 0.736194
vt 0.761558 0.919633
vt 0.526264 0.919633
vt 0.526264 0.736194
vt 0.832893 0.052155
vt 0.832893 0.235594
vt 0.543423 0.235594
vt 0.543424 0.052155
vt 0.000300 0.962757
vt 0.000300 0.779318
vt 0.235594 0.779318
vt 0.235594 0.962757
vt 0.525664 0.736194
vt 0.525664 0.919633
vt 0.236194 0.919633
vt 0.236194 0.736194
vn 0.000000 -1.000000 0.000000
vn 0.000000 1.000000 0.000000
vn 1.000000 0.000000 0.000000
vn -0.000000 -0.000000 1.000000
vn -1.000000 -0.000000 -0.000000
vn 0.000000 0.000000 -1.000000
usemtl Material
s off
f 1/1/1 2/2/1 3/3/1 4/4/1
f 5/5/2 8/6/2 7/7/2 6/8/2
f 1/9/3 5/10/3 6/11/3 2/12/3
f 2/13/4 6/14/4 7/15/4 3/16/4
f 3/17/5 7/18/5 8/19/5 4/20/5
f 5/21/6 1/22/6 4/23/6 8/24/6
f 9/25/1 10/26/1 11/27/1 12/28/1
f 13/29/2 16/30/2 15/31/2 14/32/2
f 9/33/3 13/34/3 14/35/3 10/36/3
f 10/37/4 14/38/4 15/39/4 11/40/4
f 11/41/5 15/42/5 16/43/5 12/44/5
f 13/45/6 9/46/6 12/47/6 16/48/6
