# Blender v2.66 (sub 0) OBJ File: 'rek.blend'
# www.blender.org
mtllib rek.mtl
o Cube.001
v 7.777747 4.924716 -0.203364
v -7.777740 4.924716 -0.203364
v 7.777737 4.924716 0.203366
v 7.777742 0.180122 0.339862
v -7.777742 0.180122 0.339862
v -7.777745 4.924716 0.203366
v 7.777742 0.180122 -0.339861
v -7.777738 0.180122 -0.339861
v -7.777740 3.816444 -0.339861
v -7.777740 3.618470 -0.339861
v -7.777740 2.734337 -0.339861
v -7.777740 2.507744 -0.339861
v -7.777739 1.665950 -0.339861
v -7.777739 1.462011 -0.339861
v -7.777739 0.532569 -0.339861
v 7.777737 3.816444 0.339862
v 7.777738 3.618470 0.339862
v 7.777739 2.734336 0.339862
v 7.777739 2.507743 0.339862
v 7.777740 1.665949 0.339862
v 7.777741 1.462011 0.339862
v 7.777742 0.532568 0.339862
v 7.777742 0.532569 -0.339861
v 7.777743 1.462011 -0.339861
v 7.777744 1.665950 -0.339861
v 7.777744 2.507743 -0.339861
v 7.777745 2.734336 -0.339861
v 7.777746 3.618470 -0.339861
v 7.777746 3.816444 -0.339861
v -7.777742 0.532568 0.339862
v -7.777743 1.462011 0.339862
v -7.777744 1.665949 0.339862
v -7.777744 2.507743 0.339862
v -7.777744 2.734336 0.339862
v -7.777744 3.618469 0.339862
v -7.777745 3.816444 0.339862
v 7.777740 1.665949 1.411139
v 7.777741 1.462010 1.411139
v -7.777743 1.462010 1.411139
v -7.777744 1.665949 1.411139
v 7.777742 0.180122 1.411138
v -7.777742 0.180122 1.411138
v 7.777742 0.532568 1.411138
v -7.777742 0.532568 1.411138
v 7.777739 2.734336 1.411139
v 7.777739 2.507743 1.411138
v -7.777744 2.507743 1.411138
v -7.777744 2.734336 1.411139
v 7.777737 3.816444 1.411139
v 7.777738 3.618469 1.411139
v -7.777744 3.618469 1.411138
v -7.777745 3.816444 1.411138
v -7.777740 3.816444 -1.435500
v -7.777740 3.618470 -1.435500
v 7.777746 3.618470 -1.435500
v 7.777746 3.816444 -1.435500
v -7.777740 2.734337 -1.435500
v -7.777740 2.507744 -1.435500
v 7.777744 2.507743 -1.435500
v 7.777745 2.734336 -1.435499
v -7.777739 1.665950 -1.435500
v -7.777739 1.462011 -1.435500
v 7.777743 1.462011 -1.435500
v 7.777744 1.665950 -1.435500
v 7.777742 0.180122 -1.435500
v -7.777738 0.180122 -1.435500
v -7.777739 0.532569 -1.435500
v 7.777742 0.532569 -1.435500
v 7.777742 0.180122 -0.339861
v 7.777742 0.180122 -0.339861
v 7.777742 0.180122 -0.339861
v -7.777738 0.180122 -0.339861
v -7.777738 0.180122 -0.339861
v -7.777738 0.180122 -0.339861
v 7.777747 4.924716 -0.203364
v 7.777747 4.924716 -0.203364
v 7.777737 4.924716 0.203366
v 7.777737 4.924716 0.203366
v -7.777740 4.924716 -0.203364
v -7.777740 4.924716 -0.203364
v -7.777745 4.924716 0.203366
v -7.777745 4.924716 0.203366
v -7.777739 0.532569 -0.339861
v -7.777739 0.532569 -0.339861
v -7.777739 0.532569 -0.339861
v 7.777742 0.532568 0.339862
v 7.777742 0.532568 0.339862
v 7.777742 0.532568 0.339862
v 7.777742 0.180122 0.339862
v 7.777742 0.180122 0.339862
v 7.777742 0.180122 0.339862
v 7.777746 3.816444 -0.339861
v 7.777746 3.816444 -0.339861
v 7.777746 3.816444 -0.339861
v -7.777742 0.180122 0.339862
v -7.777742 0.180122 0.339862
v -7.777742 0.180122 0.339862
v -7.777745 3.816444 0.339862
v -7.777745 3.816444 0.339862
v -7.777745 3.816444 0.339862
v -7.777740 3.816444 -0.339861
v -7.777740 3.816444 -0.339861
v -7.777740 3.816444 -0.339861
v -7.777740 3.618470 -0.339861
v -7.777740 3.618470 -0.339861
v -7.777740 3.618470 -0.339861
v -7.777740 2.734337 -0.339861
v -7.777740 2.734337 -0.339861
v -7.777740 2.734337 -0.339861
v -7.777740 2.507744 -0.339861
v -7.777740 2.507744 -0.339861
v -7.777740 2.507744 -0.339861
v -7.777739 1.665950 -0.339861
v -7.777739 1.665950 -0.339861
v -7.777739 1.665950 -0.339861
v -7.777739 1.462011 -0.339861
v -7.777739 1.462011 -0.339861
v -7.777739 1.462011 -0.339861
v 7.777737 3.816444 0.339862
v 7.777737 3.816444 0.339862
v 7.777737 3.816444 0.339862
v 7.777738 3.618470 0.339862
v 7.777738 3.618470 0.339862
v 7.777738 3.618470 0.339862
v 7.777739 2.734336 0.339862
v 7.777739 2.734336 0.339862
v 7.777739 2.734336 0.339862
v 7.777739 2.507743 0.339862
v 7.777739 2.507743 0.339862
v 7.777739 2.507743 0.339862
v 7.777740 1.665949 0.339862
v 7.777740 1.665949 0.339862
v 7.777740 1.665949 0.339862
v 7.777741 1.462011 0.339862
v 7.777741 1.462011 0.339862
v 7.777741 1.462011 0.339862
v 7.777742 0.532569 -0.339861
v 7.777742 0.532569 -0.339861
v 7.777742 0.532569 -0.339861
v 7.777743 1.462011 -0.339861
v 7.777743 1.462011 -0.339861
v 7.777743 1.462011 -0.339861
v 7.777744 1.665950 -0.339861
v 7.777744 1.665950 -0.339861
v 7.777744 1.665950 -0.339861
v 7.777744 2.507743 -0.339861
v 7.777744 2.507743 -0.339861
v 7.777744 2.507743 -0.339861
v 7.777745 2.734336 -0.339861
v 7.777745 2.734336 -0.339861
v 7.777745 2.734336 -0.339861
v 7.777746 3.618470 -0.339861
v 7.777746 3.618470 -0.339861
v 7.777746 3.618470 -0.339861
v -7.777742 0.532568 0.339862
v -7.777742 0.532568 0.339862
v -7.777742 0.532568 0.339862
v -7.777743 1.462011 0.339862
v -7.777743 1.462011 0.339862
v -7.777743 1.462011 0.339862
v -7.777744 1.665949 0.339862
v -7.777744 1.665949 0.339862
v -7.777744 1.665949 0.339862
v -7.777744 2.507743 0.339862
v -7.777744 2.507743 0.339862
v -7.777744 2.507743 0.339862
v -7.777744 2.734336 0.339862
v -7.777744 2.734336 0.339862
v -7.777744 2.734336 0.339862
v -7.777744 3.618469 0.339862
v -7.777744 3.618469 0.339862
v -7.777744 3.618469 0.339862
v 7.777741 1.462010 1.411139
v 7.777741 1.462010 1.411139
v 7.777740 1.665949 1.411139
v 7.777740 1.665949 1.411139
v -7.777744 1.665949 1.411139
v -7.777744 1.665949 1.411139
v -7.777743 1.462010 1.411139
v -7.777743 1.462010 1.411139
v 7.777742 0.532568 1.411138
v 7.777742 0.532568 1.411138
v 7.777742 0.180122 1.411138
v 7.777742 0.180122 1.411138
v -7.777742 0.180122 1.411138
v -7.777742 0.180122 1.411138
v -7.777742 0.532568 1.411138
v -7.777742 0.532568 1.411138
v 7.777739 2.507743 1.411138
v 7.777739 2.507743 1.411138
v 7.777739 2.734336 1.411139
v 7.777739 2.734336 1.411139
v -7.777744 2.734336 1.411139
v -7.777744 2.734336 1.411139
v -7.777744 2.507743 1.411138
v -7.777744 2.507743 1.411138
v 7.777738 3.618469 1.411139
v 7.777738 3.618469 1.411139
v 7.777737 3.816444 1.411139
v 7.777737 3.816444 1.411139
v -7.777745 3.816444 1.411138
v -7.777745 3.816444 1.411138
v -7.777744 3.618469 1.411138
v -7.777744 3.618469 1.411138
v -7.777740 3.618470 -1.435500
v -7.777740 3.618470 -1.435500
v -7.777740 3.816444 -1.435500
v -7.777740 3.816444 -1.435500
v 7.777746 3.816444 -1.435500
v 7.777746 3.816444 -1.435500
v 7.777746 3.618470 -1.435500
v 7.777746 3.618470 -1.435500
v -7.777740 2.507744 -1.435500
v -7.777740 2.507744 -1.435500
v -7.777740 2.734337 -1.435500
v -7.777740 2.734337 -1.435500
v 7.777745 2.734336 -1.435499
v 7.777745 2.734336 -1.435499
v 7.777744 2.507743 -1.435500
v 7.777744 2.507743 -1.435500
v -7.777739 1.462011 -1.435500
v -7.777739 1.462011 -1.435500
v -7.777739 1.665950 -1.435500
v -7.777739 1.665950 -1.435500
v 7.777744 1.665950 -1.435500
v 7.777744 1.665950 -1.435500
v 7.777743 1.462011 -1.435500
v 7.777743 1.462011 -1.435500
v 7.777742 0.180122 -1.435500
v 7.777742 0.180122 -1.435500
v -7.777738 0.180122 -1.435500
v -7.777738 0.180122 -1.435500
v -7.777739 0.532569 -1.435500
v -7.777739 0.532569 -1.435500
v 7.777742 0.532569 -1.435500
v 7.777742 0.532569 -1.435500
vt 1.558688 -0.391747
vt 1.550158 -0.256965
vt 0.515775 -0.256965
vt 0.524305 -0.391747
vt 1.321096 0.617971
vt 0.521965 0.617971
vt 0.515775 0.513578
vt 1.314905 0.513579
vt 1.324311 0.520935
vt 1.482526 0.540421
vt 1.482526 0.598485
vt 1.324311 0.617971
vt 0.525170 -0.605347
vt 0.521637 -0.431953
vt -0.799236 -0.431953
vt -0.795703 -0.605347
vt 1.288207 -0.528679
vt 1.446422 -0.509193
vt 1.446422 -0.451129
vt 1.288207 -0.431643
vt -0.799236 -0.253750
vt 0.509030 -0.253750
vt 0.512559 -0.081978
vt -0.795707 -0.081978
vt 1.236688 1.663345
vt 1.287003 1.663345
vt 1.287003 1.760381
vt 1.236688 1.760381
vt 1.485742 0.520935
vt 1.618428 0.520935
vt 1.618428 0.617971
vt 1.485742 0.617971
vt 1.358111 1.663345
vt 1.387225 1.663345
vt 1.387225 1.760381
vt 1.358111 1.760381
vt 1.113300 1.663345
vt 1.233473 1.663345
vt 1.233473 1.760381
vt 1.113300 1.760381
vt 1.650140 -0.499498
vt 1.682488 -0.499498
vt 1.682488 -0.402461
vt 1.650140 -0.402461
vt 1.561903 -0.391747
vt 1.688121 -0.391747
vt 1.688121 -0.294711
vt 1.561903 -0.294711
vt 1.390440 1.663345
vt 1.418702 1.663345
vt 1.418702 1.760381
vt 1.390440 1.760381
vt 0.498392 1.660130
vt -0.795414 1.660129
vt -0.799236 1.490300
vt 0.494570 1.490300
vt 1.728751 -0.078763
vt 1.722633 0.079198
vt 0.515774 0.079198
vt 0.521892 -0.078762
vt 1.799236 1.140992
vt 0.505429 1.140992
vt 0.501607 0.971163
vt 1.795414 0.971162
vt 1.672292 0.796174
vt 1.665181 0.946389
vt 0.515775 0.946389
vt 0.522886 0.796174
vt 1.799235 1.487083
vt 0.505429 1.487083
vt 0.501607 1.317254
vt 1.795413 1.317254
vt 1.699950 0.271212
vt 1.693300 0.425215
vt 0.515774 0.425215
vt 0.522424 0.271212
vt 1.799236 1.660129
vt 0.505430 1.660129
vt 0.501608 1.490300
vt 1.795414 1.490300
vt 1.127467 0.510363
vt 1.127467 0.460048
vt 1.224504 0.460048
vt 1.224503 0.510363
vt 1.449637 -0.395993
vt 1.449637 -0.528679
vt 1.546673 -0.528679
vt 1.546673 -0.395993
vt 1.354896 1.760381
vt 1.325781 1.760381
vt 1.325781 1.663345
vt 1.354896 1.663345
vt 1.621643 0.617971
vt 1.621643 0.497798
vt 1.718679 0.497798
vt 1.718679 0.617971
vt 1.322566 1.760381
vt 1.290218 1.760381
vt 1.290218 1.663345
vt 1.322566 1.663345
vt 1.549889 -0.402461
vt 1.549889 -0.528679
vt 1.646925 -0.528679
vt 1.646925 -0.402461
vt 1.450180 1.760381
vt 1.421918 1.760381
vt 1.421918 1.663345
vt 1.450180 1.663345
vt 0.525170 -0.781957
vt 0.521638 -0.608563
vt -0.799236 -0.608562
vt -0.795703 -0.781957
vt 0.512559 0.617971
vt -0.795707 0.617971
vt -0.799236 0.446199
vt 0.509031 0.446199
vt 1.699950 -0.253750
vt 1.693300 -0.099747
vt 0.515774 -0.099747
vt 0.522424 -0.253750
vt 0.512559 0.442984
vt -0.795707 0.442984
vt -0.799236 0.271212
vt 0.509031 0.271212
vt 1.672292 0.117782
vt 1.665181 0.267997
vt 0.515774 0.267997
vt 0.522885 0.117782
vt 0.512559 0.967946
vt -0.795707 0.967946
vt -0.799236 0.796174
vt 0.509031 0.796174
vt 1.728751 0.621187
vt 1.722633 0.779147
vt 0.515774 0.779147
vt 0.521892 0.621187
vt 1.105959 -0.605347
vt 1.097857 -0.531894
vt 0.528385 -0.531894
vt 0.536486 -0.605347
vt 1.735065 -0.685915
vt 1.764179 -0.685915
vt 1.764179 -0.532981
vt 1.735065 -0.532981
vt 0.501607 1.144207
vt 1.795414 1.144207
vt 1.799236 1.314037
vt 0.505430 1.314037
vt 1.731966 0.626213
vt 1.761080 0.626213
vt 1.761080 0.779147
vt 1.731966 0.779147
vt 1.284992 -0.705289
vt 1.275746 -0.608562
vt 0.528386 -0.608562
vt 0.537632 -0.705289
vt 1.681535 -0.685915
vt 1.731849 -0.685915
vt 1.731850 -0.532982
vt 1.681535 -0.532982
vt -0.799236 1.144207
vt 0.494570 1.144209
vt 0.498392 1.314038
vt -0.795414 1.314037
vt 1.691336 -0.447645
vt 1.741651 -0.447645
vt 1.741651 -0.294711
vt 1.691336 -0.294711
vt 1.124252 0.432917
vt 1.115884 0.510363
vt 0.515775 0.510363
vt 0.524143 0.432918
vt -0.799236 1.317254
vt 0.494570 1.317255
vt 0.498392 1.487085
vt -0.795414 1.487083
vt 1.721895 0.465038
vt 1.754243 0.465038
vt 1.754243 0.617971
vt 1.721895 0.617971
vt 1.729037 0.115063
vt 1.761385 0.115063
vt 1.761385 0.267997
vt 1.729037 0.267997
vt 1.678321 -0.780869
vt 1.670297 -0.708504
vt 1.109174 -0.708504
vt 1.117198 -0.780869
vt 1.757458 0.465038
vt 1.785720 0.465038
vt 1.785720 0.617971
vt 1.757458 0.617971
vt -0.799236 0.971161
vt 0.494570 0.971163
vt 0.498392 1.140992
vt -0.795414 1.140991
vt 1.744866 -0.447645
vt 1.773129 -0.447645
vt 1.773129 -0.294711
vt 1.744866 -0.294711
vt 1.678320 -0.605347
vt 1.670296 -0.532982
vt 1.109174 -0.532982
vt 1.117198 -0.605347
vt -0.799236 -0.428737
vt 0.509031 -0.428737
vt 0.512559 -0.256965
vt -0.795707 -0.256965
vt 1.766991 -0.099747
vt 1.738728 -0.099747
vt 1.738728 -0.256159
vt 1.766991 -0.256159
vt 1.766991 0.427624
vt 1.738729 0.427624
vt 1.738729 0.271212
vt 1.766991 0.271212
vt 1.110085 1.663345
vt 1.101717 1.740790
vt 0.501608 1.740790
vt 0.509975 1.663345
vt 1.735513 -0.099747
vt 1.703165 -0.099747
vt 1.703165 -0.256159
vt 1.735513 -0.256159
vt 1.735513 0.427624
vt 1.703165 0.427624
vt 1.703165 0.271212
vt 1.735513 0.271212
vt -0.799236 0.096225
vt 0.509031 0.096225
vt 0.512559 0.267997
vt -0.795707 0.267997
vt 1.105959 -0.781957
vt 1.097857 -0.708504
vt 0.528386 -0.708504
vt 0.536486 -0.781957
vt -0.799236 0.621187
vt 0.509031 0.621187
vt 0.512559 0.792959
vt -0.795707 0.792959
vt 1.758151 0.952586
vt 1.729037 0.952586
vt 1.729037 0.796174
vt 1.758151 0.796174
vt 1.761080 0.077649
vt 1.731966 0.077649
vt 1.731966 -0.078763
vt 1.761080 -0.078763
vt 1.284991 -0.528679
vt 1.275746 -0.431953
vt 0.528385 -0.431953
vt 0.537631 -0.528679
vt 0.512559 0.093010
vt -0.795707 0.093009
vt -0.799236 -0.078763
vt 0.509030 -0.078762
vt 1.725822 0.952586
vt 1.675507 0.952586
vt 1.675507 0.796174
vt 1.725822 0.796174
vt 1.725822 0.267997
vt 1.675507 0.267997
vt 1.675507 0.111585
vt 1.725822 0.111585
vn 0.000000 -1.000000 0.000000
vn 0.000000 1.000000 0.000000
vn 1.000000 0.000000 0.000000
vn 0.000000 0.122227 0.992492
vn -1.000000 0.000000 0.000000
vn 0.999969 0.000000 0.000000
vn 0.000000 0.000000 1.000000
vn 0.000000 0.000000 0.999969
vn -0.999969 0.000000 0.000000
vn 0.000000 0.122227 -0.992492
vn 0.000000 0.000000 -0.999969
vn 0.000000 0.000000 -1.000000
usemtl Material.001
s 1
f 7/1/1 89/2/1 5/3/1 8/4/1
f 1/5/2 2/6/2 6/7/2 3/8/2
f 29/9/3 75/10/3 77/11/3 16/12/3
f 119/13/4 78/14/4 81/15/4 36/16/4
f 98/17/5 82/18/5 79/19/5 9/20/5
f 83/21/2 137/22/2 235/23/2 233/24/2
f 69/25/3 23/26/6 22/27/3 4/28/3
f 23/29/6 24/30/3 21/31/3 22/32/3
f 24/33/3 25/34/3 20/35/3 21/36/3
f 25/37/3 26/38/3 19/39/3 20/40/3
f 26/41/3 27/42/3 18/43/3 19/44/3
f 27/45/3 28/46/3 17/47/6 18/48/3
f 28/49/3 29/50/3 16/51/3 17/52/6
f 86/53/2 156/54/2 187/55/2 181/56/2
f 88/57/7 134/58/8 31/59/7 155/60/8
f 131/61/2 162/62/2 177/63/2 175/64/2
f 132/65/7 128/66/7 33/67/7 161/68/7
f 125/69/2 168/70/2 193/71/2 191/72/2
f 126/73/8 122/74/7 35/75/7 167/76/7
f 120/77/2 99/78/2 201/79/2 199/80/2
f 95/81/5 30/82/5 15/83/5 72/84/9
f 30/85/5 158/86/9 14/87/9 15/88/5
f 158/89/9 32/90/5 13/91/5 14/92/9
f 32/93/5 164/94/5 12/95/9 13/96/5
f 164/97/5 34/98/5 11/99/5 12/100/9
f 34/101/5 170/102/5 10/103/5 11/104/5
f 170/105/5 98/106/5 9/107/5 10/108/5
f 76/109/10 92/110/10 101/111/10 80/112/10
f 152/113/1 104/114/1 205/115/1 211/116/1
f 153/117/11 149/118/12 107/119/12 106/120/12
f 146/121/1 110/122/1 213/123/1 219/124/1
f 147/125/12 143/126/12 113/127/12 112/128/12
f 140/129/1 116/130/1 221/131/1 227/132/1
f 141/133/11 139/134/12 85/135/12 118/136/12
f 38/137/7 37/138/7 40/139/8 39/140/7
f 163/141/5 159/142/5 179/143/5 178/144/5
f 160/145/1 135/146/1 173/147/1 180/148/1
f 136/149/3 133/150/3 176/151/3 174/152/3
f 41/153/7 43/154/7 44/155/7 42/156/7
f 90/157/3 87/158/6 182/159/3 183/160/3
f 96/161/1 91/162/1 184/163/1 185/164/1
f 157/165/9 97/166/5 186/167/5 188/168/5
f 46/169/7 45/170/7 48/171/7 47/172/7
f 165/173/1 129/174/1 189/175/1 195/176/1
f 130/177/3 127/178/3 192/179/3 190/180/3
f 169/181/9 166/182/5 196/183/5 194/184/5
f 50/185/8 49/186/7 52/187/8 51/188/7
f 123/189/3 121/190/3 200/191/3 197/192/3
f 171/193/1 124/194/1 198/195/1 203/196/1
f 100/197/5 172/198/5 204/199/5 202/200/5
f 56/201/12 55/202/12 54/203/12 53/204/12
f 102/205/2 93/206/2 209/207/2 207/208/2
f 94/209/3 154/210/3 212/211/3 210/212/3
f 105/213/5 103/214/5 208/215/5 206/216/5
f 60/217/12 59/218/12 58/219/12 57/220/12
f 111/221/5 108/222/5 215/223/5 214/224/5
f 150/225/3 148/226/3 220/227/3 217/228/3
f 109/229/2 151/230/2 218/231/2 216/232/2
f 64/233/11 63/234/12 62/235/12 61/236/12
f 114/237/2 144/238/2 225/239/2 223/240/2
f 117/241/5 115/242/5 224/243/5 222/244/9
f 145/245/3 142/246/3 228/247/6 226/248/3
f 68/249/12 65/250/12 66/251/12 67/252/12
f 70/253/1 73/254/1 231/255/1 229/256/1
f 138/257/3 71/258/3 230/259/3 236/260/3
f 74/261/5 84/262/5 234/263/9 232/264/5
