# Blender v2.66 (sub 0) OBJ File: 'floor.blend'
# www.blender.org
mtllib room.mtl
o Cube.002_Cube.003
v 20.948027 0.330719 -43.628864
v 21.732002 0.330719 -43.628864
v 21.732002 0.330719 33.941334
v 20.948027 0.330719 33.941334
v 20.948027 7.582620 -43.628864
v 21.732002 7.582620 -43.628864
v 21.732002 7.582620 33.941334
v 20.948027 7.582620 33.941334
v -21.732002 0.330719 -43.628864
v -20.948025 0.330719 -43.628864
v -20.948025 0.330719 33.941334
v -21.732002 0.330719 33.941334
v -21.732002 7.582620 -43.628864
v -20.948025 7.582620 -43.628864
v -20.948025 7.582620 33.941334
v -21.732002 7.582620 33.941334
v -21.732002 0.330719 34.725307
v -21.732002 0.330719 33.941330
v 21.732002 0.330719 33.941330
v 21.732002 0.330719 34.725307
v -21.732002 7.582620 34.725307
v -21.732002 7.582620 33.941330
v 21.732002 7.582620 33.941330
v 21.732002 7.582620 34.725307
v -21.732002 0.330719 -43.628860
v -21.732002 0.330719 -44.412834
v 21.732000 0.330719 -44.412834
v 21.732000 0.330719 -43.628860
v -21.732002 7.582620 -43.628860
v -21.732002 7.582620 -44.412834
v 21.732000 7.582620 -44.412834
v 21.732000 7.582620 -43.628860
v -21.732002 -0.122679 34.725311
v -21.732002 -0.122679 -44.412834
v 21.732002 -0.122679 -44.412834
v 21.732002 -0.122679 34.725311
v -21.732002 0.330719 34.725311
v -21.732002 0.330719 -44.412834
v 21.732002 0.330719 -44.412834
v 21.732002 0.330719 34.725311
v 20.948027 7.582620 -43.628864
v 20.948027 7.582620 -43.628864
v 21.732002 7.582620 -43.628864
v 21.732002 7.582620 -43.628864
v 21.732002 0.330719 -43.628864
v 21.732002 0.330719 -43.628864
v 20.948027 0.330719 -43.628864
v 20.948027 0.330719 -43.628864
v 21.732002 7.582620 33.941334
v 21.732002 7.582620 33.941334
v 21.732002 0.330719 33.941334
v 21.732002 0.330719 33.941334
v 20.948027 7.582620 33.941334
v 20.948027 7.582620 33.941334
v 20.948027 0.330719 33.941334
v 20.948027 0.330719 33.941334
v -21.732002 7.582620 -43.628864
v -21.732002 7.582620 -43.628864
v -20.948025 7.582620 -43.628864
v -20.948025 7.582620 -43.628864
v -20.948025 0.330719 -43.628864
v -20.948025 0.330719 -43.628864
v -21.732002 0.330719 -43.628864
v -21.732002 0.330719 -43.628864
v -20.948025 7.582620 33.941334
v -20.948025 7.582620 33.941334
v -20.948025 0.330719 33.941334
v -20.948025 0.330719 33.941334
v -21.732002 7.582620 33.941334
v -21.732002 7.582620 33.941334
v -21.732002 0.330719 33.941334
v -21.732002 0.330719 33.941334
v -21.732002 7.582620 34.725307
v -21.732002 7.582620 34.725307
v -21.732002 7.582620 33.941330
v -21.732002 7.582620 33.941330
v -21.732002 0.330719 33.941330
v -21.732002 0.330719 33.941330
v -21.732002 0.330719 34.725307
v -21.732002 0.330719 34.725307
v 21.732002 7.582620 33.941330
v 21.732002 7.582620 33.941330
v 21.732002 0.330719 33.941330
v 21.732002 0.330719 33.941330
v 21.732002 7.582620 34.725307
v 21.732002 7.582620 34.725307
v 21.732002 0.330719 34.725307
v 21.732002 0.330719 34.725307
v -21.732002 7.582620 -43.628860
v -21.732002 7.582620 -43.628860
v -21.732002 7.582620 -44.412834
v -21.732002 7.582620 -44.412834
v -21.732002 0.330719 -44.412834
v -21.732002 0.330719 -44.412834
v -21.732002 0.330719 -43.628860
v -21.732002 0.330719 -43.628860
v 21.732000 7.582620 -44.412834
v 21.732000 7.582620 -44.412834
v 21.732000 0.330719 -44.412834
v 21.732000 0.330719 -44.412834
v 21.732000 7.582620 -43.628860
v 21.732000 7.582620 -43.628860
v 21.732000 0.330719 -43.628860
v 21.732000 0.330719 -43.628860
v -21.732002 0.330719 34.725311
v -21.732002 0.330719 34.725311
v -21.732002 0.330719 -44.412834
v -21.732002 0.330719 -44.412834
v -21.732002 -0.122679 -44.412834
v -21.732002 -0.122679 -44.412834
v -21.732002 -0.122679 34.725311
v -21.732002 -0.122679 34.725311
v 21.732002 0.330719 -44.412834
v 21.732002 0.330719 -44.412834
v 21.732002 -0.122679 -44.412834
v 21.732002 -0.122679 -44.412834
v 21.732002 0.330719 34.725311
v 21.732002 0.330719 34.725311
v 21.732002 -0.122679 34.725311
v 21.732002 -0.122679 34.725311
vn 0.000000 0.000000 -1.000000
vn 1.000000 -0.000000 0.000000
vn 0.000000 -0.000000 1.000000
vn -1.000000 0.000000 0.000000
vn 0.000000 -1.000000 -0.000000
vn 0.000000 1.000000 -0.000000
usemtl None
s off
f 5//1 6//1 2//1 1//1
f 43//2 7//2 3//2 45//2
f 49//3 8//3 4//3 51//3
f 53//4 41//4 47//4 55//4
f 48//5 46//5 52//5 56//5
f 54//6 50//6 44//6 42//6
f 13//1 14//1 10//1 9//1
f 59//2 15//2 11//2 61//2
f 65//3 16//3 12//3 67//3
f 69//4 57//4 63//4 71//4
f 64//5 62//5 68//5 72//5
f 70//6 66//6 60//6 58//6
f 21//4 22//4 18//4 17//4
f 75//1 23//1 19//1 77//1
f 81//2 24//2 20//2 83//2
f 85//3 73//3 79//3 87//3
f 80//5 78//5 84//5 88//5
f 86//6 82//6 76//6 74//6
f 29//4 30//4 26//4 25//4
f 91//1 31//1 27//1 93//1
f 97//2 32//2 28//2 99//2
f 101//3 89//3 95//3 103//3
f 96//5 94//5 100//5 104//5
f 102//6 98//6 92//6 90//6
f 37//4 38//4 34//4 33//4
f 107//1 39//1 35//1 109//1
f 113//2 40//2 36//2 115//2
f 117//3 105//3 111//3 119//3
f 112//5 110//5 116//5 120//5
f 118//6 114//6 108//6 106//6
